<?xml version="1.0" encoding="UTF-8"?>
<!DOCTYPE svg PUBLIC "-//W3C//DTD SVG 1.1//EN" "http://www.w3.org/Graphics/SVG/1.1/DTD/svg11.dtd">
<svg xmlns="http://www.w3.org/2000/svg" version="1.1" width="1000px" height="1000px" style="shape-rendering:geometricPrecision; text-rendering:geometricPrecision; image-rendering:optimizeQuality; fill-rule:evenodd; clip-rule:evenodd" xmlns:xlink="http://www.w3.org/1999/xlink">
<g><path fill="#1e39d6" fill-opacity="0.992" stroke="#1e39d6" stroke-width="0.5" stroke-opacity="0.992" d="M 484.02,137.51 c 11.32,-0.49 22.63,-0.5 33.95,-0.02 c 131.86,5.52 259.49,67.4 345.02,168.03 c 19.26,23.85 36.57,49.04 51.92,75.57 c 27.38,48.49 51.16,99.15 55.89,155.41 c 0.88,33.18 1.43,66.37 1.66,99.56 c 0.56,9.63 0.52,19.25 -0.11,28.87 c -1.75,64.67 -21.22,120.62 -48.36,178.5 c -9.2,17.15 -23.47,19.39 -41.49,19.01 c -58.21,-1.04 -101.13,-45.79 -94.27,-104.81 c 3.76,-28.91 8.66,-57.62 14.69,-86.14 c 17.89,-84.07 39.76,-167.21 56.49,-251.52 c 2.63,-15.03 5.79,-38.34 3.25,-53.15 c -0.99,-0.47 -2.04,-0.66 -3.17,-0.58 c -66.45,-2.01 -115.44,45.13 -166.44,80.18 c -6.19,2.88 -14.35,-0.85 -19.86,-3.92 c -36.1,-25.04 -72.33,-46.83 -112.08,-65.32 c -23.44,-10.4 -46.83,-20.89 -70.19,-31.46 c -2.14,-1.68 -5.99,-4.11 -5.72,-7.21 c 0.13,-6.67 1.13,-13.21 2.97,-19.62 c 14.25,-39.39 41.04,-84.32 24.42,-126.92 c -3.21,-5.99 -8.24,-8.9 -15.09,-8.71 c -39.61,-1.95 -74.8,16.28 -106.57,37.99 c -36.66,26.67 -71.11,55.95 -103.34,87.84 c -114.31,129.28 -184.64,291.1 -213.4,460.42 c -2.67,19.2 -5.18,38.41 -7.54,57.64 c -4.74,1.47 -10.62,-2.58 -12.41,-7.04 c -27.75,-62.76 -42.32,-128.43 -43.71,-197.02 c -0.24,-8.02 -0.13,-16.03 0.3,-24.04 c 3.68,-124.43 62.14,-243 150.16,-329.56 c 87.53,-83.42 202.65,-128.48 323.03,-131.98 Z M 307.28,570 c -1.22,-37.37 27.72,-79.68 65.22,-86.36 c 26.68,-1.26 41.62,24.84 40.63,48.86 c -0.97,33.28 -14.84,59.81 -41.62,79.57 c -14.2,11.46 -34.83,13.45 -49.19,1.26 c -10.33,-12.59 -15.34,-27.03 -15.04,-43.33 Z M 554.76,679 c 0.3,-35.92 24.13,-80.4 62.74,-85.95 c 18.85,-1.21 28,3.14 37.86,19.23 c 8.16,14.38 5.83,28.64 3.41,44.19 c -6.36,31.47 -28.28,71.18 -64.32,73.15 c -10.46,2.18 -28.11,-8.87 -33.56,-17.08 c -4.24,-10.78 -6.28,-21.96 -6.13,-33.54 Z"/></g>
<g><path fill="#1e39d6" fill-opacity="0.98" stroke="#1e39d6" stroke-width="0.5" stroke-opacity="0.98" d="M 398.68,790.1 c 1.99,-12.59 4.88,-24.97 8.68,-37.14 c 5.85,-17.68 13.83,-32.8 4.34,-51.25 c -7.93,-12.53 -10.43,-22.07 -8.7,-37.13 c 2.16,-7.22 13.95,-10.65 20.5,-10.73 c 29.41,1.17 53.59,13.03 72.54,35.56 c 9.05,18.09 -9.05,27.29 -23.34,31.96 c -17.21,4.67 -26.73,6.97 -37.01,22.96 c -8.05,16.49 -17.16,32.36 -27.33,47.64 c -0.97,1.01 -2.14,1.33 -3.51,0.97 c -1.59,-0.8 -5.38,-1.09 -6.17,-2.84 Z"/></g>
</svg>
